<?xml version="1.0" encoding="utf-8"?>
<!-- Generator: Adobe Illustrator 22.0.1, SVG Export Plug-In . SVG Version: 6.00 Build 0)  -->
<svg version="1.1" id="Call_x5F_Center" xmlns="http://www.w3.org/2000/svg" xmlns:xlink="http://www.w3.org/1999/xlink" x="0px"
	 y="0px" viewBox="0 0 115.3 115" style="enable-background:new 0 0 115.3 115;" xml:space="preserve">
<style type="text/css">
	.st0{fill:#F7941E;}
	.st1{clip-path:url(#SVGID_2_);fill:#FFFFFF;}
	.st2{clip-path:url(#SVGID_4_);fill:#FFFFFF;}
	.st3{clip-path:url(#SVGID_6_);fill:#FFFFFF;}
	.st4{fill:#FFFFFF;}
	.st5{clip-path:url(#SVGID_8_);}
	.st6{clip-path:url(#SVGID_10_);fill:#FFFFFF;}
	.st7{fill:#5B5B5B;}
	.st8{fill-rule:evenodd;clip-rule:evenodd;fill:#5B5B5B;}
	.st9{clip-path:url(#SVGID_12_);fill:#FFFFFF;}
	.st10{fill:#483729;}
</style>
<g id="row3">
</g>
<g id="row2">
	<circle class="st0" cx="57.8" cy="57.5" r="57.5"/>
	<path id="icon:5_12_" class="st4" d="M65.6,43.1c0.5,0,0.9-0.1,1.2-0.3c0.3-0.2,0.4-0.5,0.4-1s-0.1-0.8-0.4-1
		c-0.3-0.2-0.7-0.3-1.2-0.3h-4.5c0.1-0.5,0.4-1,0.7-1.4c0.3-0.5,0.8-1,1.4-1.7l1.9-1.9c0.7-0.7,1.2-1.4,1.5-2.1
		c0.3-0.7,0.5-1.5,0.5-2.2c0-1.5-0.4-2.6-1.2-3.3c-0.8-0.7-2-1.1-3.5-1.1c-0.7,0-1.3,0.1-1.8,0.3c-0.5,0.2-1,0.5-1.3,0.8
		c-0.4,0.4-0.6,0.8-0.8,1.3c-0.2,0.5-0.3,1.1-0.3,1.7c0,0.2,0,0.4,0.1,0.6c0,0.2,0.1,0.4,0.2,0.5c0.1,0.2,0.2,0.3,0.4,0.4
		c0.2,0.1,0.4,0.2,0.7,0.2c0.3,0,0.7-0.1,0.9-0.3c0.3-0.2,0.4-0.5,0.5-1c0.1-0.7,0.2-1.2,0.4-1.6c0.2-0.4,0.6-0.6,1.2-0.6
		c0.5,0,0.9,0.2,1.1,0.6c0.2,0.4,0.4,0.9,0.4,1.5c0,0.3,0,0.6-0.1,0.9c-0.1,0.3-0.2,0.5-0.3,0.8c-0.1,0.3-0.3,0.6-0.6,0.9
		c-0.3,0.3-0.6,0.7-1,1.1l-1.1,1.1c-0.6,0.6-1.1,1.2-1.5,1.8s-0.7,1.2-0.9,1.7c-0.2,0.5-0.4,1-0.5,1.4c-0.1,0.4-0.1,0.8-0.1,1.1
		c0,0.5,0.1,0.8,0.3,1c0.2,0.2,0.6,0.3,1,0.3H65.6z M73.8,41.8c0,0.6,0.1,1,0.4,1.3c0.2,0.3,0.6,0.4,1,0.4c0.4,0,0.8-0.1,1-0.4
		c0.2-0.3,0.4-0.7,0.4-1.3v-1.9h0.5c0.3,0,0.5-0.1,0.8-0.3c0.3-0.2,0.4-0.5,0.4-0.9c0-0.5-0.1-0.8-0.4-0.9c-0.3-0.2-0.6-0.3-0.8-0.3
		h-0.5v-9.3c0-0.4-0.1-0.7-0.4-1c-0.2-0.3-0.6-0.4-1.2-0.4c-0.5,0-0.9,0.1-1.1,0.2c-0.2,0.1-0.5,0.4-0.7,0.9L68.8,37
		c-0.3,0.6-0.5,1.2-0.5,1.6c0,0.5,0.1,0.8,0.4,1c0.3,0.2,0.7,0.3,1.2,0.3h3.8V41.8z M73.8,37.5h-3.1l3-6.5h0V37.5z M81,41.9
		c-0.1,0.2-0.1,0.5-0.1,0.8c0,0.3,0.1,0.5,0.3,0.6c0.2,0.1,0.5,0.2,0.8,0.2c0.3,0,0.6-0.1,0.8-0.3c0.2-0.2,0.4-0.4,0.5-0.7l5.2-14.5
		c0.1-0.2,0.1-0.5,0.1-0.8c0-0.3-0.1-0.5-0.3-0.6c-0.2-0.1-0.5-0.2-0.8-0.2c-0.3,0-0.6,0.1-0.8,0.3c-0.2,0.2-0.4,0.4-0.5,0.7
		L81,41.9z M98.3,29.8c-0.4,0.6-0.7,1.3-1.1,2c-0.3,0.7-0.7,1.5-1,2.3c-0.3,0.8-0.6,1.6-0.8,2.3c-0.2,0.8-0.5,1.5-0.7,2.2
		c-0.2,0.7-0.3,1.3-0.4,1.9c-0.1,0.6-0.1,1-0.1,1.3c0,0.4,0.1,0.8,0.3,1.1c0.2,0.3,0.6,0.5,1.1,0.5c0.5,0,0.9-0.1,1.2-0.4
		c0.3-0.3,0.4-0.7,0.5-1.1c0.1-0.9,0.2-1.9,0.5-2.9c0.2-1,0.5-2.1,0.8-3.1c0.3-1,0.6-2,1-3c0.4-0.9,0.7-1.8,1.1-2.5
		c0.2-0.4,0.4-0.7,0.5-1c0.1-0.2,0.2-0.4,0.3-0.6c0.1-0.2,0.1-0.3,0.1-0.3c0-0.1,0-0.1,0-0.2c0-0.5-0.1-0.8-0.4-0.9
		c-0.2-0.1-0.6-0.2-1.1-0.2h-6.9c-0.3,0-0.5,0-0.7,0.1c-0.2,0.1-0.3,0.2-0.4,0.4c-0.1,0.1-0.2,0.3-0.2,0.5c-0.1,0.2-0.1,0.3-0.1,0.4
		c0,0.1,0,0.3,0.1,0.4c0.1,0.2,0.1,0.3,0.2,0.4c0.1,0.1,0.3,0.2,0.4,0.3c0.2,0.1,0.4,0.1,0.7,0.1H98.3z"/>
	<g>
		<path class="st4" d="M78.4,56.1c-0.1,4.9-4,8.8-8.9,8.9v2.6c6.3-0.1,11.4-5.2,11.5-11.5H78.4z"/>
		<path class="st4" d="M69.6,75.6c10.7-0.1,19.5-8.8,19.5-19.5h-2.6c-0.1,9.3-7.6,16.9-17,17V75.6z"/>
		<path class="st4" d="M69.6,81v2.6C84.7,83.5,97,71.2,97.1,56.1h-2.6C94.4,69.8,83.3,80.9,69.6,81"/>
		<path class="st4" d="M44.8,88.9c-0.8,0-1.5-0.7-1.5-1.5c0-0.8,0.7-1.5,1.5-1.5c0.8,0,1.5,0.7,1.5,1.5
			C46.3,88.2,45.6,88.9,44.8,88.9 M40.1,30.6c0-0.2,0.2-0.3,0.4-0.3H49c0.2,0,0.4,0.2,0.4,0.3v0.6c0,0.2-0.2,0.3-0.4,0.3h-8.5
			c-0.2,0-0.4-0.2-0.4-0.3V30.6z M61.3,83h-33V34.2h26.2v-7H25.9c-1.2,0-2.2,1-2.2,2.2v60.5c0,1.2,1,2.2,2.2,2.2h37.7
			c1.2,0,2.2-1,2.2-2.2V51.1l-4.6,0V83z"/>
		<path class="st4" d="M44.4,59.9h1.8c0.2,0,0.3,0.1,0.4,0.2c3.4-0.3,4.5-2.3,4.8-3.6c-0.1,0-0.2-0.1-0.3-0.1v-5.3
			c-1.2-2.3-3.6-3.8-6.4-3.8s-5.1,1.5-6.4,3.8v5.3c-0.1,0.1-0.3,0.1-0.5,0.1h0c0,0-0.1,0-0.1,0c0.9,3,3.7,5.3,7,5.3
			c2.3,0,4.4-1.1,5.7-2.8c-0.8,0.8-2,1.4-3.8,1.6c-0.1,0.2-0.3,0.3-0.5,0.3h-1.8c-0.3,0-0.5-0.2-0.5-0.5v0
			C43.9,60.1,44.1,59.9,44.4,59.9"/>
		<path class="st4" d="M31.6,67.2l-1.1,6.5c-0.2,1.1,0.7,2.2,1.8,2.2h25c1.1,0,2-1,1.8-2.2L58,67.2c-0.4-2.4-2-4.4-4.2-5.3l-3.3-1.4
			c-1.3,1.7-3.4,2.9-5.8,2.9c-2.4,0-4.4-1.1-5.8-2.9l-3.3,1.4C33.5,62.8,32,64.8,31.6,67.2"/>
		<path class="st4" d="M44.8,43.9c-2.8,0-4.8,1-6,2.8c-0.7,1.1-1,2.4-1.2,3.6c0.1,0,0.2-0.1,0.3-0.1h0c0.2,0,0.3,0,0.5,0.1
			c0.1-1.1,0.4-2.1,1-3c1-1.6,2.9-2.4,5.4-2.4s4.3,0.8,5.4,2.4c0.6,1,0.9,1.9,1,3c0.1-0.1,0.3-0.1,0.5-0.1h0c0.1,0,0.2,0,0.3,0.1
			c-0.1-1.2-0.4-2.5-1.2-3.6C49.6,44.8,47.6,43.9,44.8,43.9"/>
		<path class="st4" d="M36.9,50.9c-0.9,0.2-1.5,1.2-1.5,2.4c0,1.2,0.6,2.2,1.5,2.4c0-0.1,0-0.1,0-0.2v-4.3
			C36.8,51.1,36.8,51,36.9,50.9"/>
		<path class="st4" d="M37.1,51.4c0,0.1-0.1,0.2-0.1,0.3v3.5c0,0.1,0,0.1,0,0.2c0.1,0.4,0.3,0.7,0.7,0.7c0,0,0,0,0.1,0h0
			c0.1,0,0.3,0,0.4-0.1v-4.4v-0.5V51c-0.1-0.1-0.2-0.1-0.4-0.1h0c-0.1,0-0.1,0-0.2,0C37.4,51,37.2,51.1,37.1,51.4"/>
		<path class="st4" d="M52.7,55.7c0.8-0.2,1.5-1.2,1.5-2.4c0-1.2-0.7-2.2-1.5-2.4c0,0.1,0.1,0.3,0.1,0.4v4.3
			C52.7,55.6,52.7,55.7,52.7,55.7"/>
		<path class="st4" d="M51.7,56.1L51.7,56.1c0.1,0,0.1,0,0.2,0c0.3-0.1,0.5-0.3,0.6-0.7c0-0.1,0-0.1,0-0.2v-3.5c0-0.1,0-0.2-0.1-0.3
			c-0.1-0.2-0.3-0.4-0.5-0.5c-0.1,0-0.1-0.1-0.2-0.1h0c-0.1,0-0.3,0-0.4,0.1v0.2v0.5V56c0.1,0,0.1,0.1,0.2,0.1
			C51.6,56.1,51.7,56.1,51.7,56.1"/>
	</g>
</g>
<g id="row1">
</g>
</svg>
